<?xml version="1.0" encoding="utf-8"?>
<!-- Generator: Adobe Illustrator 24.1.3, SVG Export Plug-In . SVG Version: 6.00 Build 0)  -->
<svg version="1.1" xmlns="http://www.w3.org/2000/svg" xmlns:xlink="http://www.w3.org/1999/xlink" x="0px" y="0px"
	 viewBox="0 0 1366 410.93" style="enable-background:new 0 0 1366 410.93;" xml:space="preserve">
<style type="text/css">
	.st0{fill:#FBCBA5;}
	.st1{fill:none;stroke:#000000;stroke-miterlimit:10;}
	.st2{fill:none;stroke:#000000;stroke-width:2;stroke-miterlimit:10;}
	.st3{fill:#FFFFFF;}
</style>
<g id="Lager_3">
	<rect class="st0" width="1366" height="410.93"/>
</g>
<g id="Lager_1">
	<g id="Lager_2">
		<path class="st1" d="M634.44,472.91c9.6,3.49,48.87,19.2,87.27,4.36"/>
		<path class="st2" d="M601.41,467.81c-11.7,5.32-74.82,15.6-69.86-13.12c0,0,3.9-1.77,5.67-2.13s-28.72,2.48-34.75-15.25
			c-5.32-15.66,5.39-49.3,10.17-61.83c0.63-1.66,1.16-2.94,1.53-3.77"/>
		<path class="st2" d="M509.57,375.97c-4.61,0.71-19.15-14.89-14.54-28.01s17.02-35.46,21.63-38.65"/>
		<path class="st2" d="M508.86,314.62c-1.77-1.06-7.8-18.44,0-26.24c7.8-7.8,21.63-22.69,23.76-24.47"/>
		<path class="st2" d="M523.4,270.3c-1.42-0.35-0.71-3.19,2.48-6.38c3.19-3.19-7.08-6.74-1.59-12.41
			c5.49-5.67,12.58-8.16,12.58-8.16"/>
		<path class="st2" d="M540.77,232.71c-2.13,0-28.37-7.8,3.9-24.47c-3.9-2.13-13.83-5.32-9.57-10.64s12.77-8.51,12.77-8.51
			s-10.64-26.6-34.75-8.16"/>
		<path class="st2" d="M555.67,205.05c2.48-2.48,7.45-5.32,7.45-5.32s-5.67-2.13-3.72-4.96c1.95-2.84,7.62-4.96,12.94-3.9"/>
		<path class="st2" d="M520.56,252.92c-2.84-0.71-33.34-18.72-26.42-55.1c6.92-36.38,36.27-48.02,48.76-48.09
			c19.86-0.1,31.56,19.86,34.75,28.01"/>
		<path class="st2" d="M613.47,171.36c-5.32,0.35-27.3-2.13-26.95,9.93c0,0,0.35-4.61-8.86-3.55c-9.22,1.06-0.71,10.28,0,14.18"/>
		<path class="st2" d="M780.49,171.36c3.55-3.55,13.12-25.89-13.47-5.32c-4.76,3.68-20.92-23.8-38.65-20.59
			c-1.42,2.15-5.32,5.34,2.48,13.5c7.15,7.47-47.52-16.67-65.6-12.77c-18.08,3.9,0,10.28,0,10.28c-4.26,0.35-57.09-7.8-60.28,12.06"
			/>
		<path class="st2" d="M790.77,179.17c2.84-2.13,8.87-3.9,9.93,0c1.06,3.9-4.96,3.55-3.55,4.61c1.42,1.06,8.51,2.84,8.51,8.16
			s-3.9,6.74-3.9,6.74"/>
		<path class="st2" d="M847.15,183.07c-1.77-3.19-15.96-11.7-28.72-1.42c-12.77,10.28-5.32,10.64-1.77,10.28s12.41,9.64,5.32,12.62
			c-7.09,2.98-8.16,2.98-9.22,3.69c-1.06,0.71,7.21-0.35,13.18,4.61c5.97,4.96,5.53,10.64,3.27,14.54c-2.26,3.9-6.87,4.26-9.71,4.96
			"/>
		<path class="st2" d="M817.01,240.51c3.55,0.71,18.49,3.4,17.93,14.82"/>
		<path class="st2" d="M865.24,363.56c2.13-1.42,12.77-17.02,4.61-28.37c-8.16-11.35-28.72-32.27-28.72-32.27
			c10.28,3.19,12.41-3.19,12.77-14.54s-23.76-24.47-25.89-29.43c-1.56-3.64,15.96-7.45,28.01-19.86
			c12.06-12.41,13.47-29.79,6.74-47.16s-18.44-36.17-40.07-41.13c-21.63-4.96-34.75,20.21-37.58,21.99"/>
		<path class="st2" d="M830.84,432c7.8,0.35,40.42,1.06,40.07-22.69c-0.35-23.76-9.22-46.1-9.57-51.06"/>
		<path class="st1" d="M814.88,451.15c5.67,0,30.14-4.41,30.5-19.05"/>
		<path class="st1" d="M754.95,474.9c8.16-0.35,62.41,0,68.79-23.76"/>
		<path class="st1" d="M668.99,478.23c-1.43-1.33-11.85-11.75-22.79-10.84s5.93-3.19-7.29-13.22
			c-13.22-10.03-34.65-21.88-31.91-42.85c2.74-20.97,12.76-55.62,21.88-62s20.51-10.03,24.62-44.22
			c4.1-34.19,12.31-61.75,12.31-61.75s8.66-2.49,9.57,0s25.98,90.47,26.9,92.75c0.91,2.28,29.18,16.87,34.65,44.68
			c5.47,27.81,4.1,52.42-5.93,63.82s-16.41,9.51-15.5,18.43s-0.91-1.56-12.76,3.91s-14.59,11.85-15.04,13.22
			S673.83,482.74,668.99,478.23z"/>
		<path d="M732.56,331.81c0.82,6.25,5.4,34.03,20.48,31.75c15.08-2.28,18-7.23,16.43-22.3c-1.58-15.08-11.03-27.9-21.15-28.58
			C738.18,312,731.42,323.18,732.56,331.81z"/>
		<path class="st3" d="M737.28,327.08c0.45,2.48,3.38,6.08,6.3,4.05s3.83-7.88,0-8.1S737.28,327.08,737.28,327.08z"/>
		<path d="M594.4,320.33c-4.48,5.82-14.63,25.43-4.95,35.78c9.68,10.35,22.95,5.85,27-1.8c4.05-7.65,5.63-23.4,4.95-29.03
			C620.73,319.66,607.23,303.68,594.4,320.33z"/>
		<path class="st3" d="M611.28,323.02c-2.73,0.38-2.93,7.72,0,8.7c2.93,0.98,6.53-1.13,6.53-4.35
			C617.8,324.16,616.23,322.34,611.28,323.02z"/>
		<path class="st1" d="M650.21,349.36c-5.13,0,16.95,14.45,23.21,14.2c6.27-0.25,24.49-13.3,25.62-14.2
			c1.12-0.9-6.53-0.23-16.65,2.48C672.26,354.53,654.48,349.36,650.21,349.36z"/>
		<path class="st1" d="M647.28,392.78c4.73,2.7,16.88,10.8,24.08,2.25c7.2-8.55,4.05-31.47,4.05-31.47"/>
		<path class="st1" d="M709.83,387.61c-0.23,1.8-14.94,21.42-35.37,1.15"/>
		<path class="st1" d="M757.92,385.06c0,0,4.99-1.24,4.99-7.67"/>
		<path class="st1" d="M766.73,385.06c0.88-0.88,2.7-1.83,3.11-7.67"/>
		<path class="st1" d="M580,387.61c0-2.26,4.36-5.52,5.41-6.38"/>
		<path class="st1" d="M588.81,389.46c0.59-1.76,2.94-5.87,4.99-7.05"/>
	</g>
</g>
</svg>
